<svg xmlns="http://www.w3.org/2000/svg" xmlns:xlink="http://www.w3.org/1999/xlink" width="1145" height="792"
  viewBox="0 0 1145 792">
  <defs>
    <filter id="Rectangle_1" x="31.5" y="44.5" width="1089" height="715" filterUnits="userSpaceOnUse">
      <feOffset dx="3" dy="6" input="SourceAlpha" />
      <feGaussianBlur stdDeviation="5.5" result="blur" />
      <feFlood />
      <feComposite operator="in" in2="blur" />
      <feComposite in="SourceGraphic" />
    </filter>
    <pattern id="pattern" preserveAspectRatio="xMidYMid slice" width="100%" height="100%" viewBox="0 0 3584 2022">
      <image width="3584" height="2022" href="assets/dogg_design.png">
    </pattern>
    <filter id="Screenshot_2020-10-20_at_14.39.46" x="36" y="109" width="1074" height="640"
      filterUnits="userSpaceOnUse">
      <feOffset dy="3" input="SourceAlpha" />
      <feGaussianBlur stdDeviation="3" result="blur-2" />
      <feFlood flood-opacity="0.161" />
      <feComposite operator="in" in2="blur-2" />
      <feComposite in="SourceGraphic" />
    </filter>
    <filter id="Screenshot_2020-10-20_at_14.39.46-2" x="36" y="109" width="1074" height="640"
      filterUnits="userSpaceOnUse">
      <feOffset dy="3" input="SourceAlpha" />
      <feGaussianBlur stdDeviation="3" result="blur-3" />
      <feFlood flood-opacity="0.161" />
      <feComposite operator="in" in2="blur-3" />
      <feComposite in="SourceGraphic" />
    </filter>
    <clipPath id="clip-blue_browser">
      <rect width="1145" height="792" />
    </clipPath>
  </defs>
  <g id="blue_browser" clip-path="url(#clip-blue_browser)">
    <g id="Group_859" data-name="Group 859" transform="translate(-245 -960)">
      <g id="Group_845" data-name="Group 845" transform="translate(290 1015)">
        <g id="Group_1" data-name="Group 1" transform="translate(0 0)">
          <g transform="matrix(1, 0, 0, 1, -45, -55)" filter="url(#Rectangle_1)">
            <g id="Rectangle_1-2" data-name="Rectangle 1" transform="translate(45 55)" fill="#fff" stroke="#0232ff"
              stroke-linecap="round" stroke-width="4">
              <rect width="1056" height="682" rx="14" stroke="none" />
              <rect x="2" y="2" width="1052" height="678" rx="12" fill="none" />
            </g>
          </g>
          <g transform="matrix(1, 0, 0, 1, -45, -55)" filter="url(#Screenshot_2020-10-20_at_14.39.46)">
            <g id="Screenshot_2020-10-20_at_14.39.46-3" data-name="Screenshot 2020-10-20 at 14.39.46"
              transform="translate(45 115)" stroke="#0232ff" stroke-linecap="round" stroke-linejoin="round"
              stroke-width="4" fill="url(#pattern)">
              <path d="M0,0H1056a0,0,0,0,1,0,0V608a14,14,0,0,1-14,14H14A14,14,0,0,1,0,608V0A0,0,0,0,1,0,0Z"
                stroke="none" />
              <path d="M4,2H1052a2,2,0,0,1,2,2V608a12,12,0,0,1-12,12H14A12,12,0,0,1,2,608V4A2,2,0,0,1,4,2Z"
                fill="none" />
            </g>
          </g>
          <g transform="matrix(1, 0, 0, 1, -45, -55)" filter="url(#Screenshot_2020-10-20_at_14.39.46-2)">
            <g id="Screenshot_2020-10-20_at_14.39.46-4" data-name="Screenshot 2020-10-20 at 14.39.46"
              transform="translate(45 115)" fill="rgba(2,50,255,0.51)" stroke="#0232ff" stroke-linecap="round"
              stroke-linejoin="round" stroke-width="4">
              <path d="M0,0H1056a0,0,0,0,1,0,0V608a14,14,0,0,1-14,14H14A14,14,0,0,1,0,608V0A0,0,0,0,1,0,0Z"
                stroke="none" />
              <path d="M4,2H1052a2,2,0,0,1,2,2V608a12,12,0,0,1-12,12H14A12,12,0,0,1,2,608V4A2,2,0,0,1,4,2Z"
                fill="none" />
            </g>
          </g>
        </g>
        <text id="NAME_OF_PROJECT_" data-name="NAME OF PROJECT " transform="translate(34 15)" font-size="26"
          font-family="HalyardDisplayMedium, Halyard Display">
          <tspan x="0" y="28">NAME OF PROJECT </tspan>
        </text>
      </g>
    </g>
  </g>
</svg>