<svg id="Layer_1" data-name="Layer 1" xmlns="http://www.w3.org/2000/svg" viewBox="0 0 9.13 8.69">
  <defs>
    <style>
      .cls-1 {
        fill: #0232ff;
      }
    </style>
  </defs>
  <title>dog</title>
  <g>
    <path class="cls-1" d="M1.55,7.1a.11.11,0,0,0-.09.08,2,2,0,0,0-.08.26,3.41,3.41,0,0,0,0,.9.9.9,0,0,0,0,.16c.06.19.12.37.19.55a.18.18,0,0,1-.12.25.51.51,0,0,1-.64-.2,1.28,1.28,0,0,1-.2-.5,2.71,2.71,0,0,1-.1-.75,1.88,1.88,0,0,1,.19-.73,1.13,1.13,0,0,0,.14-.36.86.86,0,0,0,0-.48,3.66,3.66,0,0,1-.23-1A1.59,1.59,0,0,1,.83,4.11C.88,4,.88,4,.82,4A1.28,1.28,0,0,1,.61,3.5a4.71,4.71,0,0,1-.17-.91,1.61,1.61,0,0,1,0-.31c0-.1,0-.12.14-.12h0c.15,0,.21,0,.25.15A4.42,4.42,0,0,1,1,2.83c0,.16.07.32.12.49a.81.81,0,0,0,.1.18.15.15,0,0,0,.13.07h1l2.11,0h.12L5,3.47a1.61,1.61,0,0,0,.4-.17L6,3s0,0,.08,0a3.34,3.34,0,0,0,1.3.85,0,0,0,0,1,0,0,5.94,5.94,0,0,1,.06.94,4.45,4.45,0,0,1-.15.9A11.61,11.61,0,0,0,7.05,7,5.37,5.37,0,0,0,7,8.06a2.26,2.26,0,0,0,0,.26.21.21,0,0,0,.14.19l.17.06a.24.24,0,0,1,.11.37A.21.21,0,0,1,7.3,9a1.62,1.62,0,0,1-.44,0,.43.43,0,0,1-.4-.43c0-.15,0-.3,0-.45l0-.88,0-.53V6.7s0,0,0,0c-.09.44-.19.89-.28,1.34a.37.37,0,0,0,.2.45.23.23,0,0,1,0,.42A.31.31,0,0,1,6.09,9C6,9,5.85,9,5.74,9a.38.38,0,0,1-.33-.4,2.33,2.33,0,0,1,0-.38l0-.43L5.57,7c0-.15,0-.3,0-.44a.13.13,0,0,0,0-.06,1.67,1.67,0,0,0-.08-.2.09.09,0,0,0-.06-.06L4.56,6a6.14,6.14,0,0,1-1.07-.43.12.12,0,0,0-.1,0L3,5.59a.2.2,0,0,0-.19.2,4.48,4.48,0,0,1-.08.64.29.29,0,0,1,0,.09c-.13.34-.26.67-.38,1a.62.62,0,0,0,0,.5l.27.52a.63.63,0,0,1,0,.43c0,.14-.12.2-.25.15A3.07,3.07,0,0,1,2,9a.43.43,0,0,1-.14-.16,2.33,2.33,0,0,1-.26-.66c0-.11-.05-.22-.07-.33a.17.17,0,0,1,0-.07c0-.2,0-.39,0-.59C1.56,7.13,1.55,7.12,1.55,7.1Z" transform="translate(-0.44 -0.66)"/>
    <path class="cls-1" d="M6.26,2.62l.33-.41a10.92,10.92,0,0,0,.72-1c.06-.09.09-.19.14-.28a.64.64,0,0,1,.33-.3.11.11,0,0,1,.15,0,.51.51,0,0,1,.14.45c0,.1,0,.19-.05.29a.08.08,0,0,0,0,0,5.53,5.53,0,0,1,.61.58l.13.14a.52.52,0,0,0,.36.16l.27,0a.22.22,0,0,1,.15.2.29.29,0,0,1,0,.13,1.69,1.69,0,0,1-.15.37.64.64,0,0,1-.55.33,1.07,1.07,0,0,1-.63-.14l-.13-.07a.12.12,0,0,0-.13,0l-.33.25h0a3.9,3.9,0,0,1-1.17-.75Z" transform="translate(-0.44 -0.66)"/>
  </g>
</svg>
