<svg id="Layer_1" data-name="Layer 1" xmlns="http://www.w3.org/2000/svg" viewBox="0 0 185.1 176.2"><defs><style>.cls-1{fill:#0232ff;}</style></defs><title>dog_1</title><path class="cls-1" d="M30.9,141.7a2.2,2.2,0,0,0-1.9,1.6,31.3,31.3,0,0,0-1.6,5.2,69.9,69.9,0,0,0-1.1,18.3,19.4,19.4,0,0,0,.7,3.3c1.2,3.7,2.5,7.4,3.7,11.1s.1,4.1-2.3,5.1c-4.4,1.7-9.5,1-13.1-4.1a30.5,30.5,0,0,1-4-10.1c-1.2-5-2.3-10-1.9-15.2a36.3,36.3,0,0,1,3.7-14.8,24,24,0,0,0,3-7.4A17.9,17.9,0,0,0,15,125a80,80,0,0,1-4.7-20.9c-.8-8.4.9-16.2,5.9-23.2,1.1-1.5,1.1-1.5-.1-3s-3.4-5.9-4.3-9.2A97.4,97.4,0,0,1,8.3,50.2a33.5,33.5,0,0,1,.2-6.3c.2-1.9.8-2.4,2.8-2.5h.3c3.1-.2,4.1.3,5.1,3.2s1.9,6.9,2.7,10.4,1.5,6.6,2.5,9.9a13.8,13.8,0,0,0,2,3.8,3.1,3.1,0,0,0,2.7,1.4l20.6.2,42.9.4a8.5,8.5,0,0,0,2.3-.3c3-.7,5.9-1.6,8.9-2.4a27.6,27.6,0,0,0,8.1-3.5l11.1-6.9c.6-.4.9-.5,1.5.1a68,68,0,0,0,26.3,17.2,1.3,1.3,0,0,1,.8.8,137.5,137.5,0,0,1,1.2,19.2c-.2,6.2-1.6,12.2-3.1,18.2a216.7,216.7,0,0,0-4.9,26.5,118.7,118.7,0,0,0-.4,21.5c.1,1.8.1,3.5.2,5.2a4.4,4.4,0,0,0,2.8,3.9,23,23,0,0,0,3.4,1.2,5,5,0,0,1,2.4,7.6,4.7,4.7,0,0,1-3.4,2,32.4,32.4,0,0,1-8.8.2c-5-.8-7.7-3.6-8.1-8.7-.3-3-.2-6.1-.3-9.2l-.6-17.8c-.2-3.6-.4-7.2-.5-10.7a4.9,4.9,0,0,1-.1-1.3c-.2.3-.3.4-.3.6-1.9,9.1-3.9,18.1-5.8,27.2-.9,4.2.4,6.9,4.1,9.1s3.8,6.1.3,8.6a6.9,6.9,0,0,1-4.4,1.3,41.7,41.7,0,0,1-7.1-.6c-4.3-.9-6.6-3.7-6.6-8.1-.1-2.6.5-5.2.7-7.7s.5-5.7.8-8.6c.5-5.2,1.1-10.4,1.7-15.7.3-3,.7-6,1-9a1.5,1.5,0,0,0-.2-1.1l-1.5-4.1a1.7,1.7,0,0,0-1.3-1.1c-6.1-1.7-12.3-3.3-18.4-5.1a123.3,123.3,0,0,1-21.7-8.8,3.6,3.6,0,0,0-2-.4c-2.7.2-5.4.6-8,1s-3.7,1.6-3.8,4.2a113.6,113.6,0,0,1-1.6,12.9,7.8,7.8,0,0,1-.5,1.8c-2.6,6.8-5.3,13.5-7.7,20.3a12.3,12.3,0,0,0,.9,10.1c1.7,3.5,3.6,6.9,5.3,10.5a13.1,13.1,0,0,1,1.2,8.7c-.6,2.8-2.5,4.1-5.2,3.1a51.4,51.4,0,0,1-8.4-3.5,9.6,9.6,0,0,1-3-3.3,48.2,48.2,0,0,1-5.1-13.2c-.6-2.3-1-4.5-1.5-6.8a6.6,6.6,0,0,1-.1-1.4c.1-4,.1-7.9.2-11.9Z" transform="translate(-8.2 -11)"/><path class="cls-1" d="M126.3,50.8c2.4-2.9,4.6-5.6,6.7-8.4,5-6.3,10.3-12.5,14.7-19.4,1.1-1.8,1.8-3.8,2.8-5.7a13.1,13.1,0,0,1,6.6-6.1,2.6,2.6,0,0,1,3.1.8,10.2,10.2,0,0,1,2.8,9.2c-.3,2-.7,3.9-.9,5.8a.9.9,0,0,0,.3.9,113.4,113.4,0,0,1,12.3,11.7l2.7,2.9c1.9,2.3,4.6,2.9,7.4,3.3l5.4.8c1.4.2,2.9,2.1,3.1,3.9a7.4,7.4,0,0,1-.2,2.6,51.2,51.2,0,0,1-3,7.7c-2.4,4.3-6.5,6.3-11.3,6.7a21.5,21.5,0,0,1-12.7-2.9l-2.6-1.4a2.3,2.3,0,0,0-2.6.1l-6.7,5a1.2,1.2,0,0,1-1.1.3c-8.7-3.8-16.9-8.5-23.8-15.1Z" transform="translate(-8.2 -11)"/></svg>