<svg xmlns="http://www.w3.org/2000/svg" xmlns:xlink="http://www.w3.org/1999/xlink" width="950" height="620"
  viewBox="0 0 950 620">
  <defs>
    <linearGradient id="linear-gradient" x1="0.5" x2="0.5" y2="0.066" gradientUnits="objectBoundingBox">
      <stop offset="0" stop-color="#e6e6e6" />
      <stop offset="1" stop-color="#b7b7b7" />
    </linearGradient>
    <filter id="Rectangle_1" x="5.5" y="-0.5" width="945" height="633" filterUnits="userSpaceOnUse">
      <feOffset dx="3" dy="6" input="SourceAlpha" />
      <feGaussianBlur stdDeviation="5.5" result="blur" />
      <feFlood />
      <feComposite operator="in" in2="blur" />
      <feComposite in="SourceGraphic" />
    </filter>
    <pattern id="pattern" preserveAspectRatio="xMidYMid slice" width="100%" height="100%" viewBox="0 0 3584 2022">
    </pattern>
    <filter id="Screenshot_2020-10-20_at_14.39.46" x="10" y="43" width="930" height="579" filterUnits="userSpaceOnUse">
      <feOffset dy="3" input="SourceAlpha" />
      <feGaussianBlur stdDeviation="3" result="blur-2" />
      <feFlood flood-opacity="0.161" />
      <feComposite operator="in" in2="blur-2" />
      <feComposite in="SourceGraphic" />
    </filter>
    <filter id="Screenshot_2020-10-20_at_14.39.46-2" x="10" y="43" width="930" height="579"
      filterUnits="userSpaceOnUse">
      <feOffset dy="3" input="SourceAlpha" />
      <feGaussianBlur stdDeviation="3" result="blur-3" />
      <feFlood flood-opacity="0.161" />
      <feComposite operator="in" in2="blur-3" />
      <feComposite in="SourceGraphic" />
    </filter>
    <clipPath id="clip-Artboard_2">
      <rect width="950" height="620" />
    </clipPath>
  </defs>
  <g id="Artboard_2" data-name="Artboard – 2" clip-path="url(#clip-Artboard_2)">
    <g id="Group_853" data-name="Group 853" transform="translate(14052 -667)">
      <g id="Group_852" data-name="Group 852" transform="translate(-14033 677)">
        <g id="Group_845" data-name="Group 845" transform="translate(0 0)">
          <g id="Group_1" data-name="Group 1">
            <g transform="matrix(1, 0, 0, 1, -19, -10)" filter="url(#Rectangle_1)">
              <rect id="Rectangle_1-2" data-name="Rectangle 1" width="912" height="600" rx="14"
                transform="translate(19 10)" fill="url(#linear-gradient)" />
            </g>
            <g transform="matrix(1, 0, 0, 1, -19, -10)" filter="url(#Screenshot_2020-10-20_at_14.39.46)">
              <path id="Screenshot_2020-10-20_at_14.39.46-3" data-name="Screenshot 2020-10-20 at 14.39.46"
                d="M0,0H912a0,0,0,0,1,0,0V547a14,14,0,0,1-14,14H14A14,14,0,0,1,0,547V0A0,0,0,0,1,0,0Z"
                transform="translate(19 49)" fill="url(#pattern)" />
            </g>
            <g transform="matrix(1, 0, 0, 1, -19, -10)" filter="url(#Screenshot_2020-10-20_at_14.39.46-2)">
              <g id="Screenshot_2020-10-20_at_14.39.46-4" data-name="Screenshot 2020-10-20 at 14.39.46"
                transform="translate(19 49)" fill="rgba(250,235,255,0.78)" stroke="#faebff" stroke-linecap="round"
                stroke-linejoin="round" stroke-width="4">
                <path d="M0,0H912a0,0,0,0,1,0,0V547a14,14,0,0,1-14,14H14A14,14,0,0,1,0,547V0A0,0,0,0,1,0,0Z"
                  stroke="none" />
                <path d="M4,2H908a2,2,0,0,1,2,2V547a12,12,0,0,1-12,12H14A12,12,0,0,1,2,547V4A2,2,0,0,1,4,2Z"
                  fill="none" />
              </g>
            </g>
          </g>
          <text id="Redesign_of_doggdesign.com_" data-name="Redesign of doggdesign.com "
            transform="translate(347.513 8)" font-size="16" font-family="Helvetica">
            <tspan x="0" y="12">Redesign of doggdesign.com </tspan>
          </text>
          <text id="Text_about_the_project_" data-name="Text about the project " transform="translate(364.513 301.583)"
            font-size="14" font-family="HalyardDisplay-Regular, Halyard Display">
            <tspan x="0" y="15">Text about the project </tspan>
          </text>
        </g>
      </g>
      <circle id="Ellipse_4" data-name="Ellipse 4" cx="7" cy="7" r="7" transform="translate(-13970 688)"
        fill="#6eff4b" />
      <circle id="Ellipse_5" data-name="Ellipse 5" cx="7" cy="7" r="7" transform="translate(-13992 688)"
        fill="#fff14b" />
      <circle id="Ellipse_6" data-name="Ellipse 6" cx="7" cy="7" r="7" transform="translate(-14016 688)"
        fill="#ff524b" />
    </g>
  </g>
</svg>