<svg xmlns="http://www.w3.org/2000/svg" xmlns:xlink="http://www.w3.org/1999/xlink" width="355" height="55" viewBox="0 0 355 55">
  <defs>
    <clipPath id="clip-menu_background">
      <rect width="355" height="55"/>
    </clipPath>
  </defs>
  <g id="menu_background" clip-path="url(#clip-menu_background)">
    <g id="Group_866" data-name="Group 866" transform="translate(-1497 -33)">
      <g id="Group_844" data-name="Group 844" transform="translate(1497 33)">
        <path id="Path_19" data-name="Path 19" d="M14,0H341a14,14,0,0,1,14,14V41a14,14,0,0,1-14,14H14A14,14,0,0,1,0,41V14A14,14,0,0,1,14,0Z" fill="#ede8fd"/>
      </g>
      <path id="Path_10" data-name="Path 10" d="M-3038,374h27l45-54h-27Z" transform="translate(4548 -287)" fill="#f8ebff"/>
      <path id="Path_11" data-name="Path 11" d="M-3038,374h27l45-54h-27Z" transform="translate(4602 -287)" fill="#f8ebff"/>
      <path id="Path_12" data-name="Path 12" d="M-3038,374h27l45-54h-27Z" transform="translate(4656 -287)" fill="#f8ebff"/>
      <path id="Path_13" data-name="Path 13" d="M-3038,374h27l45-54h-27Z" transform="translate(4710 -287)" fill="#f8ebff"/>
      <path id="Path_14" data-name="Path 14" d="M-3038,374h27l45-54h-27Z" transform="translate(4764 -287)" fill="#f8ebff"/>
      <path id="Path_15" data-name="Path 15" d="M-3038,374h27l43.03-47.175S-2971.643,320-2978,320h-15Z" transform="translate(4818 -287)" fill="#f8ebff"/>
    </g>
  </g>
</svg>
