<svg xmlns="http://www.w3.org/2000/svg" xmlns:xlink="http://www.w3.org/1999/xlink" width="375" height="884" viewBox="0 0 375 884">
  <defs>
    <clipPath id="clip-path">
      <rect width="10.711" height="10.712" fill="none"/>
    </clipPath>
    <filter id="Path_2497" x="-9" y="757" width="393" height="71" filterUnits="userSpaceOnUse">
      <feOffset dy="3" input="SourceAlpha"/>
      <feGaussianBlur stdDeviation="3" result="blur"/>
      <feFlood flood-opacity="0.161"/>
      <feComposite operator="in" in2="blur"/>
      <feComposite in="SourceGraphic"/>
    </filter>
    <clipPath id="clip-path-2">
      <rect width="20" height="20" fill="none"/>
    </clipPath>
    <clipPath id="clip-path-7">
      <rect width="22.951" height="26" fill="none"/>
    </clipPath>
    <clipPath id="clip-path-8">
      <rect width="26" height="21" fill="none"/>
    </clipPath>
    <clipPath id="clip-Betaling">
      <rect width="375" height="884"/>
    </clipPath>
  </defs>
  <g id="Betaling" clip-path="url(#clip-Betaling)">
    <rect width="375" height="884" fill="#fff"/>
    <g id="Component_1_43" data-name="Component 1 – 43">
      <rect id="Rectangle_1" data-name="Rectangle 1" width="375" height="102" fill="#fff"/>
      <text id="ZEITGEIST" transform="translate(95 7)" fill="#0020ff" font-size="26" font-family="Oswald-Bold, Oswald" font-weight="700" letter-spacing="0.03em"><tspan x="47.089" y="31">ZEITGEIST</tspan></text>
      <g id="Search_Box" data-name="Search Box" transform="translate(106 58)">
        <g id="Rectangle_8" data-name="Rectangle 8" fill="#fff" stroke="#ccc" stroke-width="1">
          <rect width="180" height="24" stroke="none"/>
          <rect x="0.5" y="0.5" width="179" height="23" fill="none"/>
        </g>
        <g id="bx-search" transform="translate(10.998 7)" clip-path="url(#clip-path)">
          <path id="Path_13" data-name="Path 13" d="M6.581,11.162a4.552,4.552,0,0,0,2.8-.966L11.9,12.712l.81-.81L10.194,9.385a4.575,4.575,0,1,0-3.614,1.776Zm0-8.016A3.436,3.436,0,1,1,3.145,6.581,3.439,3.439,0,0,1,6.581,3.145Z" transform="translate(-2 -2)" fill="#2b2b2b"/>
        </g>
        <g id="Component_3_1" data-name="Component 3 – 1" transform="translate(29.674 6)">
          <text id="Search" transform="translate(0 10)" font-size="8" font-family="Oswald-Bold, Oswald" font-weight="700" letter-spacing="0.18em"><tspan x="0" y="0">SEARCH</tspan></text>
        </g>
      </g>
      <g id="Menu_" data-name="Menu " transform="translate(25 52.279)">
        <rect id="Rectangle" width="18" height="2" fill="#0020ff"/>
        <rect id="Rectangle-2" data-name="Rectangle" width="18" height="2" transform="translate(0 5)" fill="#0020ff"/>
        <rect id="Rectangle_" data-name="Rectangle " width="18" height="2" transform="translate(0 10)" fill="#0020ff"/>
      </g>
      <g id="Shopping_Bag_Icon" data-name="Shopping Bag Icon" transform="translate(338.86 17.75)">
        <path id="Path_4" data-name="Path 4" d="M20.28,20.045H2L3.828,7H18.452Z" transform="translate(-2 -1.545)" fill="none" stroke="#0020ff" stroke-linecap="square" stroke-miterlimit="10" stroke-width="1.5"/>
        <path id="Path_5" data-name="Path 5" d="M8,9.182V4.636A3.843,3.843,0,0,1,12,1h0a3.843,3.843,0,0,1,4,3.636V9.182" transform="translate(-2.86 -1)" fill="none" stroke="#0020ff" stroke-linecap="square" stroke-miterlimit="10" stroke-width="1.5"/>
      </g>
    </g>
    <path id="Path_2493" data-name="Path 2493" d="M0,0H375V54H0Z" transform="translate(0 101)" fill="#0020ff"/>
    <text id="LEVERING" transform="translate(36 113)" fill="#fff" font-size="20" font-family="Oswald-Bold, Oswald" font-weight="700" letter-spacing="0.03em"><tspan x="0" y="24">LEVERING</tspan></text>
    <g id="Group_34" data-name="Group 34" transform="translate(0 -24)">
      <path id="Path_2496" data-name="Path 2496" d="M0,0H375V54H0Z" transform="translate(0 383)" fill="#0020ff"/>
      <g id="Component_56_1" data-name="Component 56 – 1" transform="translate(36 397)">
        <text id="LEVERINGSMETODER" fill="#fff" font-size="20" font-family="Oswald-Bold, Oswald" font-weight="700" letter-spacing="0.03em"><tspan x="0" y="24">LEVERINGSMETODER</tspan></text>
      </g>
    </g>
    <path id="Path_2496-2" data-name="Path 2496" d="M0,0H375V54H0Z" transform="translate(0 570)" fill="#0020ff"/>
    <text id="BETALING-2" data-name="BETALING" transform="translate(36 583)" fill="#fff" font-size="20" font-family="Oswald-Bold, Oswald" font-weight="700" letter-spacing="0.03em"><tspan x="0" y="24">BETALING</tspan></text>
    <g id="Group_52" data-name="Group 52" transform="translate(0 503)">
      <g transform="matrix(1, 0, 0, 1, 0, -503)" filter="url(#Path_2497)">
        <path id="Path_2497-2" data-name="Path 2497" d="M0,0H375V53H0Z" transform="translate(0 763)" fill="#0020ff"/>
      </g>
      <text id="BEKRÆFT_DIN_ORDRE" data-name="BEKRÆFT DIN ORDRE" transform="translate(36 296)" fill="#fff" font-size="20" font-family="Oswald-Bold, Oswald" font-weight="700" letter-spacing="0.03em"><tspan x="0" y="0">BEKRÆFT DIN ORDRE</tspan></text>
    </g>
    <g id="Group_28" data-name="Group 28" transform="translate(8 142)">
      <g id="Group_33" data-name="Group 33">
        <text id="Navn:" transform="translate(28 38)" fill="#2b2b2b" font-size="10" font-family="PTMono-Regular, PT Mono" letter-spacing="0.005em"><tspan x="0" y="0">Navn:</tspan></text>
      </g>
    </g>
    <line id="Line_18" data-name="Line 18" x2="234" transform="translate(66 182)" fill="none" stroke="#707070" stroke-width="1"/>
    <g id="Group_56" data-name="Group 56" transform="translate(8 176)">
      <g id="Group_33-2" data-name="Group 33" transform="translate(28 29)">
        <text id="Adresse:" transform="translate(0 9)" fill="#2b2b2b" font-size="10" font-family="PTMono-Regular, PT Mono" letter-spacing="0.005em"><tspan x="0" y="0">Adresse:</tspan></text>
      </g>
    </g>
    <line id="Line_19" data-name="Line 19" x2="234" transform="translate(84 216)" fill="none" stroke="#707070" stroke-width="1"/>
    <g id="Group_57" data-name="Group 57" transform="translate(8 210)">
      <g id="Group_33-3" data-name="Group 33" transform="translate(28 29)">
        <text id="Postnummer:" transform="translate(0 9)" fill="#2b2b2b" font-size="10" font-family="PTMono-Regular, PT Mono" letter-spacing="0.005em"><tspan x="0" y="0">Postnummer:</tspan></text>
      </g>
    </g>
    <path id="Path_2498" data-name="Path 2498" d="M-1.934.107,214,0" transform="translate(104 250)" fill="none" stroke="#707070" stroke-width="1"/>
    <g id="Group_58" data-name="Group 58" transform="translate(8 244)">
      <g id="Group_33-4" data-name="Group 33" transform="translate(28 29)">
        <text id="Telefonnumer:" transform="translate(0 9)" fill="#2b2b2b" font-size="10" font-family="PTMono-Regular, PT Mono" letter-spacing="0.005em"><tspan x="0" y="0">Telefonnumer:</tspan></text>
      </g>
    </g>
    <g id="Group_62" data-name="Group 62" transform="translate(8 279)">
      <g id="Group_33-5" data-name="Group 33" transform="translate(28 29)">
        <text id="Email_adresse:" data-name="Email adresse:" transform="translate(0 9)" fill="#2b2b2b" font-size="10" font-family="PTMono-Regular, PT Mono" letter-spacing="0.005em"><tspan x="0" y="0">Email adresse:</tspan></text>
      </g>
    </g>
    <path id="Path_2499" data-name="Path 2499" d="M-1.934,0l204,1.461" transform="translate(115.934 284.107)" fill="none" stroke="#707070" stroke-width="1"/>
    <path id="Path_2507" data-name="Path 2507" d="M-1.934,0,197.375,1.461" transform="translate(120.625 319.107)" fill="none" stroke="#707070" stroke-width="1"/>
    <g id="Group_67" data-name="Group 67" transform="translate(8 407)">
      <g id="Group_33-6" data-name="Group 33">
        <text id="PostNord" transform="translate(28 29)" fill="#2b2b2b" font-size="12" font-family="PTMono-Regular, PT Mono" letter-spacing="0.005em"><tspan x="0" y="11">PostNord</tspan></text>
        <text id="Brev" transform="translate(28 65)" fill="#2b2b2b" font-size="12" font-family="PTMono-Regular, PT Mono" letter-spacing="0.005em"><tspan x="0" y="11">Brev</tspan></text>
        <text id="Levering_i_butik_" data-name="Levering i butik " transform="translate(28 101)" fill="#2b2b2b" font-size="12" font-family="PTMono-Regular, PT Mono" letter-spacing="0.005em"><tspan x="0" y="11">Levering i butik </tspan></text>
        <g id="Success" transform="translate(246 101)" clip-path="url(#clip-path-2)">
          <g id="Ellipse_1" data-name="Ellipse 1" fill="none" stroke="#2b2b2b" stroke-width="1.5">
            <circle cx="10" cy="10" r="10" stroke="none"/>
            <circle cx="10" cy="10" r="9.25" fill="none"/>
          </g>
          <path id="Path_18" data-name="Path 18" d="M7,7.562l2.607,2.607L16.776,3" transform="translate(-1.5 3.5)" fill="none" stroke="#2b2b2b" stroke-linecap="square" stroke-miterlimit="10" stroke-width="1.5"/>
        </g>
        <g id="Success-2" data-name="Success" transform="translate(246 29)" clip-path="url(#clip-path-2)">
          <g id="Ellipse_1-2" data-name="Ellipse 1" fill="none" stroke="#2b2b2b" stroke-width="1.5">
            <circle cx="10" cy="10" r="10" stroke="none"/>
            <circle cx="10" cy="10" r="9.25" fill="none"/>
          </g>
          <path id="Path_18-2" data-name="Path 18" d="M7,7.562l2.607,2.607L16.776,3" transform="translate(-1.5 3.5)" fill="none" stroke="#2b2b2b" stroke-linecap="square" stroke-miterlimit="10" stroke-width="1.5"/>
        </g>
        <g id="Success-3" data-name="Success" transform="translate(246 29)" clip-path="url(#clip-path-2)">
          <g id="Ellipse_1-3" data-name="Ellipse 1" fill="none" stroke="#2b2b2b" stroke-width="1.5">
            <circle cx="10" cy="10" r="10" stroke="none"/>
            <circle cx="10" cy="10" r="9.25" fill="none"/>
          </g>
          <path id="Path_18-3" data-name="Path 18" d="M7,7.562l2.607,2.607L16.776,3" transform="translate(-1.5 3.5)" fill="none" stroke="#2b2b2b" stroke-linecap="square" stroke-miterlimit="10" stroke-width="1.5"/>
        </g>
        <g id="Success-4" data-name="Success" transform="translate(246 101)">
          <g id="Path_2515" data-name="Path 2515" fill="none">
            <path d="M10,0A10,10,0,1,1,0,10,10,10,0,0,1,10,0Z" stroke="none"/>
            <path d="M 10 1.5 C 5.313079833984375 1.5 1.5 5.313079833984375 1.5 10 C 1.5 14.68692016601562 5.313079833984375 18.5 10 18.5 C 14.68692016601562 18.5 18.5 14.68692016601562 18.5 10 C 18.5 5.313079833984375 14.68692016601562 1.5 10 1.5 M 10 0 C 15.52285003662109 0 20 4.477149963378906 20 10 C 20 15.52285003662109 15.52285003662109 20 10 20 C 4.477149963378906 20 0 15.52285003662109 0 10 C 0 4.477149963378906 4.477149963378906 0 10 0 Z" stroke="none" fill="#2b2b2b"/>
          </g>
          <path id="Path_18-4" data-name="Path 18" d="M7,7.562l2.607,2.607L16.776,3" transform="translate(-1.5 3.5)" fill="none" stroke="#2b2b2b" stroke-linecap="square" stroke-miterlimit="10" stroke-width="1.5"/>
        </g>
        <g id="Success-5" data-name="Success" transform="translate(246 65)" clip-path="url(#clip-path-2)">
          <g id="Ellipse_1-4" data-name="Ellipse 1" fill="none" stroke="#2b2b2b" stroke-width="1.5">
            <circle cx="10" cy="10" r="10" stroke="none"/>
            <circle cx="10" cy="10" r="9.25" fill="none"/>
          </g>
          <path id="Path_18-5" data-name="Path 18" d="M7,7.562l2.607,2.607L16.776,3" transform="translate(-1.5 3.5)" fill="none" stroke="#2b2b2b" stroke-linecap="square" stroke-miterlimit="10" stroke-width="1.5"/>
        </g>
        <g id="Success-6" data-name="Success" transform="translate(246 65)" clip-path="url(#clip-path-2)">
          <g id="Ellipse_1-5" data-name="Ellipse 1" fill="none" stroke="#2b2b2b" stroke-width="1.5">
            <circle cx="10" cy="10" r="10" stroke="none"/>
            <circle cx="10" cy="10" r="9.25" fill="none"/>
          </g>
          <path id="Path_18-6" data-name="Path 18" d="M7,7.562l2.607,2.607L16.776,3" transform="translate(-1.5 3.5)" fill="none" stroke="#2b2b2b" stroke-linecap="square" stroke-miterlimit="10" stroke-width="1.5"/>
        </g>
      </g>
    </g>
    <g id="Paypal" transform="translate(36 699)" clip-path="url(#clip-path-7)">
      <path id="Path_35" data-name="Path 35" d="M27.192,12.366a7.426,7.426,0,0,1-.06,2.96q-1.312,6.446-8.541,6.444h-.664a1.039,1.039,0,0,0-1.026.856l-.062.273-.831,5.02-.032.218a1.011,1.011,0,0,1-.371.615,1.026,1.026,0,0,1-.672.24H11.142a.6.6,0,0,1-.5-.216.64.64,0,0,1-.135-.524c.092-.538.222-1.353.4-2.437s.31-1.9.4-2.437.225-1.353.409-2.431.319-1.89.407-2.431a.577.577,0,0,1,.651-.535h1.978a16.1,16.1,0,0,0,3.569-.3,9.234,9.234,0,0,0,4.337-2.091,8.7,8.7,0,0,0,2.344-3.568,12.438,12.438,0,0,0,.529-1.931c.009-.059.021-.1.038-.107a.051.051,0,0,1,.053-.016.575.575,0,0,1,.093.051,3.653,3.653,0,0,1,1.473,2.355ZM24.6,8.274a9.855,9.855,0,0,1-.7,3.426,7.184,7.184,0,0,1-4.564,4.571,12.44,12.44,0,0,1-3.81.613c0,.009-.452.01-1.359.01l-1.357-.01a1.6,1.6,0,0,0-1.784,1.391q-.029.115-1.285,7.69a.16.16,0,0,1-.182.147H5.1a.724.724,0,0,1-.555-.238.659.659,0,0,1-.173-.563l3.5-21.349a1.122,1.122,0,0,1,.415-.7,1.209,1.209,0,0,1,.78-.274h9.038a8.245,8.245,0,0,1,1.471.189,9.995,9.995,0,0,1,1.688.463,5.106,5.106,0,0,1,2.472,1.785A4.755,4.755,0,0,1,24.6,8.274Z" transform="translate(-4.364 -2.991)" fill="#2b2b2b"/>
    </g>
    <g id="Credit_Card" data-name="Credit Card" transform="translate(36 641)" clip-path="url(#clip-path-8)">
      <path id="Path_33" data-name="Path 33" d="M25.4,4H4.6A2.615,2.615,0,0,0,2,6.625v15.75A2.615,2.615,0,0,0,4.6,25H25.4A2.615,2.615,0,0,0,28,22.375V6.625A2.615,2.615,0,0,0,25.4,4Zm0,2.625V9.25H4.6V6.625ZM4.6,22.375V14.5H25.4v7.875Z" transform="translate(-2 -4)" fill="#2b2b2b"/>
      <path id="Path_34" data-name="Path 34" d="M6,14h6v2H6Z" transform="translate(-0.286 -0.429)" fill="#2b2b2b"/>
    </g>
    <text id="Visa_MasterCard" data-name="Visa / MasterCard" transform="translate(114 654)" fill="#2b2b2b" font-size="12" font-family="PTMono-Regular, PT Mono" letter-spacing="0.005em"><tspan x="0" y="0">Visa / MasterCard</tspan></text>
    <text id="PayPal-2" data-name="PayPal" transform="translate(114 718)" fill="#2b2b2b" font-size="12" font-family="PTMono-Regular, PT Mono" letter-spacing="0.005em"><tspan x="0" y="0">PayPal</tspan></text>
  </g>
</svg>
