<svg xmlns="http://www.w3.org/2000/svg" xmlns:xlink="http://www.w3.org/1999/xlink" width="375" height="812" viewBox="0 0 375 812">
  <defs>
    <clipPath id="clip-path">
      <rect width="10.711" height="10.712" fill="none"/>
    </clipPath>
    <clipPath id="clip-Menu_view">
      <rect width="375" height="812"/>
    </clipPath>
  </defs>
  <g id="Menu_view" data-name="Menu view" clip-path="url(#clip-Menu_view)">
    <rect id="Rectangle_49" data-name="Rectangle 49" width="375" height="812" fill="#0020ff"/>
    <g id="Group_19" data-name="Group 19">
      <text id="GENRE" transform="translate(36 132)" fill="#fff" font-size="20" font-family="Oswald-Bold, Oswald" font-weight="700" letter-spacing="0.03em"><tspan x="0" y="24">GENRE</tspan></text>
    </g>
    <g id="Group_20" data-name="Group 20" transform="translate(0 -3)">
      <line id="Line_17" data-name="Line 17" x2="59" transform="translate(36 163)" fill="none" stroke="#fff" stroke-width="1"/>
    </g>
    <g id="Group_20-2" data-name="Group 20" transform="translate(0 159)">
      <line id="Line_17-2" data-name="Line 17" x2="68" transform="translate(36 163)" fill="none" stroke="#fff" stroke-width="1"/>
      <text id="OM_OSS" data-name="OM OSS" transform="translate(36 132)" fill="#fff" font-size="20" font-family="Oswald-Bold, Oswald" font-weight="700" letter-spacing="0.03em"><tspan x="0" y="24">OM OSS</tspan></text>
    </g>
    <g id="Group_20-3" data-name="Group 20" transform="translate(0 212)">
      <line id="Line_17-3" data-name="Line 17" x2="34" transform="translate(36 163)" fill="none" stroke="#fff" stroke-width="1"/>
      <text id="FAQ" transform="translate(36 132)" fill="#fff" font-size="20" font-family="Oswald-Bold, Oswald" font-weight="700" letter-spacing="0.03em"><tspan x="0" y="24">FAQ</tspan></text>
    </g>
    <g id="Group_20-4" data-name="Group 20" transform="translate(0 265)">
      <line id="Line_17-4" data-name="Line 17" x2="85" transform="translate(36 163)" fill="none" stroke="#fff" stroke-width="1"/>
      <text id="LEVERING" transform="translate(36 132)" fill="#fff" font-size="20" font-family="Oswald-Bold, Oswald" font-weight="700" letter-spacing="0.03em"><tspan x="0" y="24">LEVERING</tspan></text>
    </g>
    <g id="Group_20-5" data-name="Group 20" transform="translate(0 318)">
      <line id="Line_17-5" data-name="Line 17" x2="78" transform="translate(36 163)" fill="none" stroke="#fff" stroke-width="1"/>
      <text id="KONTAKT" transform="translate(36 132)" fill="#fff" font-size="20" font-family="Oswald-Bold, Oswald" font-weight="700" letter-spacing="0.03em"><tspan x="0" y="24">KONTAKT</tspan></text>
    </g>
    <g id="Group_21" data-name="Group 21" transform="translate(42 30.2)">
      <line id="Line_17-6" data-name="Line 17" x2="69" transform="translate(36 162.8)" fill="none" stroke="#fff" stroke-width="1"/>
      <text id="Alternative_pop" data-name="Alternative pop" transform="translate(36 146.8)" fill="#fff" font-size="10" font-family="Oswald-Bold, Oswald" font-weight="700" letter-spacing="0.03em"><tspan x="0" y="12">Alternative pop</tspan></text>
    </g>
    <g id="Group_21-2" data-name="Group 21" transform="translate(42 64.2)">
      <line id="Line_17-7" data-name="Line 17" x2="36" transform="translate(36 162.8)" fill="none" stroke="#fff" stroke-width="1"/>
      <text id="Hip_hop" data-name="Hip hop" transform="translate(36 146.8)" fill="#fff" font-size="10" font-family="Oswald-Bold, Oswald" font-weight="700" letter-spacing="0.03em"><tspan x="0" y="12">Hip hop</tspan></text>
    </g>
    <g id="Group_21-3" data-name="Group 21" transform="translate(42 98.2)">
      <line id="Line_17-8" data-name="Line 17" x2="56" transform="translate(36 162.8)" fill="none" stroke="#fff" stroke-width="1"/>
      <text id="Heavy_metal" data-name="Heavy metal" transform="translate(36 146.8)" fill="#fff" font-size="10" font-family="Oswald-Bold, Oswald" font-weight="700" letter-spacing="0.03em"><tspan x="0" y="12">Heavy metal</tspan></text>
    </g>
    <g id="Component_1_30" data-name="Component 1 – 30">
      <rect id="Rectangle_1" data-name="Rectangle 1" width="375" height="102" fill="none"/>
      <text id="ZEITGEIST" transform="translate(95 7)" fill="#fff" font-size="26" font-family="Oswald-Bold, Oswald" font-weight="700" letter-spacing="0.03em"><tspan x="47.089" y="31">ZEITGEIST</tspan></text>
      <g id="Search_Box" data-name="Search Box" transform="translate(106 58)">
        <g id="Rectangle_8" data-name="Rectangle 8" fill="#fff" stroke="#ccc" stroke-width="1">
          <rect width="180" height="24" stroke="none"/>
          <rect x="0.5" y="0.5" width="179" height="23" fill="none"/>
        </g>
        <g id="bx-search" transform="translate(10.998 7)" clip-path="url(#clip-path)">
          <path id="Path_13" data-name="Path 13" d="M6.581,11.162a4.552,4.552,0,0,0,2.8-.966L11.9,12.712l.81-.81L10.194,9.385a4.575,4.575,0,1,0-3.614,1.776Zm0-8.016A3.436,3.436,0,1,1,3.145,6.581,3.439,3.439,0,0,1,6.581,3.145Z" transform="translate(-2 -2)" fill="#2b2b2b"/>
        </g>
        <g id="Component_3_1" data-name="Component 3 – 1" transform="translate(29.674 6)">
          <text id="Search" transform="translate(0 10)" font-size="8" font-family="Oswald-Bold, Oswald" font-weight="700" letter-spacing="0.18em"><tspan x="0" y="0">SEARCH</tspan></text>
        </g>
      </g>
      <g id="Shopping_Bag_Icon" data-name="Shopping Bag Icon" transform="translate(338.86 17.75)">
        <path id="Path_4" data-name="Path 4" d="M20.28,20.045H2L3.828,7H18.452Z" transform="translate(-2 -1.545)" fill="none" stroke="#fff" stroke-linecap="square" stroke-miterlimit="10" stroke-width="1.5"/>
        <path id="Path_5" data-name="Path 5" d="M8,9.182V4.636A3.843,3.843,0,0,1,12,1h0a3.843,3.843,0,0,1,4,3.636V9.182" transform="translate(-2.86 -1)" fill="none" stroke="#fff" stroke-linecap="square" stroke-miterlimit="10" stroke-width="1.5"/>
      </g>
      <g id="Close" transform="translate(25.53 49.53)">
        <path id="Path_2518" data-name="Path 2518" d="M0,0,16,16" fill="none" stroke="#fff" stroke-width="1.5"/>
        <path id="Path_2517" data-name="Path 2517" d="M16,0,0,16" fill="none" stroke="#fff" stroke-width="1.5"/>
      </g>
    </g>
  </g>
</svg>
